<svg width="697" height="451" xmlns="http://www.w3.org/2000/svg" xmlns:xlink="http://www.w3.org/1999/xlink" xml:space="preserve" overflow="hidden"><g transform="translate(-268 -217)"><g><g><g><g><path d="M-60.343 31.8807-60.343 94.2875C-60.343 102.799-53.4342 109.708-44.9151 109.708L44.9157 109.708C53.4345 109.708 60.3359 102.799 60.3359 94.2875L60.3359 31.8807C60.3359 23.3618 53.4345 16.4529 44.9157 16.4529L-44.9151 16.4529C-53.4342 16.4529-60.343 23.3618-60.343 31.8807Z" stroke="#E8E8E8" stroke-width="2.31346" stroke-linecap="round" stroke-linejoin="round" stroke-miterlimit="10" stroke-opacity="1" fill="none" fill-rule="nonzero" transform="matrix(1.00206 0 0 -1 364.092 457.987)"/><path d="M0.000241887 109.708 0.000241887 137.132" stroke="#E8E8E8" stroke-width="2.31346" stroke-linecap="round" stroke-linejoin="round" stroke-miterlimit="10" stroke-opacity="1" fill="none" fill-rule="nonzero" transform="matrix(1.00206 0 0 -1 364.092 457.987)"/><path d="M98.7276 97.367C98.7276 95.0238 96.8304 93.1264 94.487 93.1264 92.1438 93.1264 90.2464 95.0238 90.2464 97.367 90.2464 99.7102 92.1438 101.608 94.487 101.608 96.8304 101.608 98.7276 99.7102 98.7276 97.367Z" fill="#CA8044" fill-rule="nonzero" fill-opacity="1" transform="matrix(1.00206 0 0 1 269.41 218)"/><path d="M-12.6157 76.7962C-12.6157 83.4632-18.0203 88.8601-24.6874 88.8601-31.3468 88.8601-36.7515 83.4632-36.7515 76.7962-36.7515 70.1292-31.3468 64.7245-24.6874 64.7245-18.0203 64.7245-12.6157 70.1292-12.6157 76.7962Z" stroke="#E8E8E8" stroke-width="2.31346" stroke-linecap="round" stroke-linejoin="round" stroke-miterlimit="10" stroke-opacity="1" fill="none" fill-rule="nonzero" transform="matrix(1.00206 0 0 -1 364.092 457.987)"/><path d="M74.743 163.19C74.743 160.462 72.5283 158.254 69.7994 158.254 67.0783 158.254 64.8634 160.462 64.8634 163.19 64.8634 165.919 67.0783 168.126 69.7994 168.126 72.5283 168.126 74.743 165.919 74.743 163.19Z" fill="#CA8044" fill-rule="nonzero" fill-opacity="1" transform="matrix(1.00206 0 0 1 269.41 218)"/><path d="M36.7519 76.7962C36.7519 83.4632 31.3472 88.8601 24.6802 88.8601 18.0208 88.8601 12.6162 83.4632 12.6162 76.7962 12.6162 70.1292 18.0208 64.7245 24.6802 64.7245 31.3472 64.7245 36.7519 70.1292 36.7519 76.7962Z" stroke="#E8E8E8" stroke-width="2.31346" stroke-linecap="round" stroke-linejoin="round" stroke-miterlimit="10" stroke-opacity="1" fill="none" fill-rule="nonzero" transform="matrix(1.00206 0 0 -1 364.092 457.987)"/><path d="M124.111 163.19C124.111 160.462 121.896 158.254 119.167 158.254 116.446 158.254 114.231 160.462 114.231 163.19 114.231 165.919 116.446 168.126 119.167 168.126 121.896 168.126 124.111 165.919 124.111 163.19Z" fill="#CA8044" fill-rule="nonzero" fill-opacity="1" transform="matrix(1.00206 0 0 1 269.41 218)"/><path d="M-20.8474 41.2916-20.8474 47.5731C-20.8474 49.168-19.5472 50.4682-17.9523 50.4682L17.9528 50.4682C19.5477 50.4682 20.8479 49.168 20.8479 47.5731L20.8479 41.2916C20.8479 39.6892 19.5477 38.3965 17.9528 38.3965L-17.9523 38.3965C-19.5472 38.3965-20.8474 39.6892-20.8474 41.2916Z" stroke="#E8E8E8" stroke-width="1.54229" stroke-linecap="round" stroke-linejoin="round" stroke-miterlimit="10" stroke-opacity="1" fill="none" fill-rule="nonzero" transform="matrix(1.00206 0 0 -1 364.092 457.987)"/><path d="M-7.12786 38.3965-7.12786 50.4682" stroke="#E8E8E8" stroke-width="0.963948" stroke-linecap="round" stroke-linejoin="round" stroke-miterlimit="10" stroke-opacity="1" fill="none" fill-rule="nonzero" transform="matrix(1.00206 0 0 -1 364.092 457.987)"/><path d="M7.12835 38.3965 7.12835 50.4682" stroke="#E8E8E8" stroke-width="0.963948" stroke-linecap="round" stroke-linejoin="round" stroke-miterlimit="10" stroke-opacity="1" fill="none" fill-rule="nonzero" transform="matrix(1.00206 0 0 -1 364.092 457.987)"/><path d="M-52.1113-40.5418-52.1113-3.33647C-52.1113 3.05085-46.9334 8.22876-40.546 8.22876L40.5466 8.22876C46.9338 8.22876 52.1117 3.05085 52.1117-3.33647L52.1117-40.5418C52.1117-46.9289 46.9338-52.1144 40.5466-52.1144L-40.546-52.1144C-46.9334-52.1144-52.1113-46.9289-52.1113-40.5418Z" stroke="#E8E8E8" stroke-width="2.31346" stroke-linecap="round" stroke-linejoin="round" stroke-miterlimit="10" stroke-opacity="1" fill="none" fill-rule="nonzero" transform="matrix(1.00206 0 0 -1 364.092 457.987)"/><path d="M9.87225-21.9391C9.87225-16.4891 5.45025-12.0671 0.000241887-12.0671-5.44977-12.0671-9.87177-16.4891-9.87177-21.9391-9.87177-27.3967-5.44977-31.811 0.000241887-31.811 5.45025-31.811 9.87225-27.3967 9.87225-21.9391Z" stroke="#CA8044" stroke-width="1.54229" stroke-linecap="round" stroke-linejoin="round" stroke-miterlimit="10" stroke-opacity="1" fill="none" fill-rule="nonzero" transform="matrix(1.00206 0 0 -1 364.092 457.987)"/><path d="M-52.1113-13.7149-74.0549-35.651" stroke="#E8E8E8" stroke-width="2.31346" stroke-linecap="round" stroke-linejoin="round" stroke-miterlimit="10" stroke-opacity="1" fill="none" fill-rule="nonzero" transform="matrix(1.00206 0 0 -1 364.092 457.987)"/><path d="M52.1117-13.7149 74.0555-35.651" stroke="#E8E8E8" stroke-width="2.31346" stroke-linecap="round" stroke-linejoin="round" stroke-miterlimit="10" stroke-opacity="1" fill="none" fill-rule="nonzero" transform="matrix(1.00206 0 0 -1 364.092 457.987)"/><path d="M-23.0394-52.1144-23.0394-74.0507" stroke="#E8E8E8" stroke-width="2.31346" stroke-linecap="round" stroke-linejoin="round" stroke-miterlimit="10" stroke-opacity="1" fill="none" fill-rule="nonzero" transform="matrix(1.00206 0 0 -1 364.092 457.987)"/><path d="M23.04-52.1144 23.04-74.0507" stroke="#E8E8E8" stroke-width="2.31346" stroke-linecap="round" stroke-linejoin="round" stroke-miterlimit="10" stroke-opacity="1" fill="none" fill-rule="nonzero" transform="matrix(1.00206 0 0 -1 364.092 457.987)"/><path d="M0.0302359 0 5.50293-15.2086 8.82887-15.2086 14.3015 0 11.0059 0 9.91736-3.35619 4.41443-3.35619 3.2957 0ZM5.17034-5.9867 9.13123-5.9867 7.16589-12.0641Z" fill="#E8E8E8" fill-rule="nonzero" fill-opacity="1" transform="matrix(1.00206 0 0 1 327.938 284.571)"/><path d="M8.58698 0.211651C7.02983 0.211651 5.69191-0.105825 4.56562-0.755896 3.45445-1.39841 2.60028-2.30549 1.99557-3.47713 1.40597-4.64121 1.11873-6.01694 1.11873-7.58921 1.11873-9.16147 1.40597-10.5296 1.99557-11.7013 2.60028-12.888 3.45445-13.8027 4.56562-14.4527 5.69191-15.0952 7.02983-15.4203 8.58698-15.4203 9.37311-15.4203 10.1366-15.3069 10.8849-15.0877 11.6484-14.8836 12.3438-14.5737 12.9712-14.1504 13.591-13.7271 14.105-13.1828 14.5132-12.5176 14.9138-11.8676 15.1557-11.1041 15.2389-10.2197L12.0036-10.2197C11.9432-10.7035 11.7693-11.1344 11.4896-11.5199 11.2024-11.8978 10.8093-12.2002 10.3104-12.4269 9.80398-12.6462 9.20681-12.7595 8.52651-12.7595 7.53628-12.7595 6.72747-12.5176 6.10764-12.0339 5.50293-11.5652 5.05694-10.9454 4.77726-10.1592 4.5127-9.37311 4.38419-8.5114 4.38419-7.58921 4.38419-6.65945 4.52026-5.80528 4.80751-5.01915 5.08719-4.23302 5.53317-3.59808 6.13789-3.1143 6.75772-2.64564 7.57408-2.41887 8.58698-2.41887 9.35044-2.41887 9.99294-2.54738 10.5221-2.81192 11.0436-3.06894 11.4594-3.43177 11.7617-3.90042 12.0641-4.36153 12.2304-4.89821 12.2758-5.50293L8.6777-5.50293 8.6777-8.01249 15.4505-8.01249 15.4505-6.47047C15.4505-5.15521 15.186-3.9987 14.6644-2.99336 14.1353-1.98045 13.3642-1.19432 12.3362-0.634953 11.3082-0.0680306 10.0534 0.211651 8.58698 0.211651Z" fill="#E8E8E8" fill-rule="nonzero" fill-opacity="1" transform="matrix(1.00206 0 0 1 341.87 284.571)"/><path d="M1.81415 0 1.81415-15.2086 12.0036-15.2086 12.0036-12.5781 4.98891-12.5781 4.98891-9.04053 11.3687-9.04053 11.3687-6.50072 4.98891-6.50072 4.98891-2.63053 12.0036-2.63053 12.0036 0Z" fill="#E8E8E8" fill-rule="nonzero" fill-opacity="1" transform="matrix(1.00206 0 0 1 358.515 284.571)"/><path d="M1.81415 0 1.81415-15.2086 4.92845-15.2086 11.9129-4.95868 11.9129-15.2086 14.9063-15.2086 14.9063 0 11.792 0 4.77726-10.3104 4.77726 0Z" fill="#E8E8E8" fill-rule="nonzero" fill-opacity="1" transform="matrix(1.00206 0 0 1 371.798 284.571)"/><path d="M4.26325 0 4.26325-12.5479 0.211651-12.5479 0.211651-15.2086 11.4896-15.2086 11.4896-12.5479 7.43802-12.5479 7.43802 0Z" fill="#E8E8E8" fill-rule="nonzero" fill-opacity="1" transform="matrix(1.00206 0 0 1 388.559 284.571)"/><path d="M587.075 190.622C587.075 182.133 580.196 175.262 571.714 175.262 563.233 175.262 556.355 182.133 556.355 190.622 556.355 199.104 563.233 205.973 571.714 205.973 580.196 205.973 587.075 199.104 587.075 190.622Z" fill="#CA8044" fill-rule="nonzero" fill-opacity="0.15" transform="matrix(1.00206 0 0 1 269.41 218)"/><path d="M629.858 218.046C629.858 207.138 621.022 198.295 610.114 198.295 599.206 198.295 590.363 207.138 590.363 218.046 590.363 228.953 599.206 237.79 610.114 237.79 621.022 237.79 629.858 228.953 629.858 218.046Z" fill="#CA8044" fill-rule="nonzero" fill-opacity="0.15" transform="matrix(1.00206 0 0 1 269.41 218)"/><path d="M570.067 237.246C570.067 230.578 564.663 225.173 558.002 225.173 551.336 225.173 545.931 230.578 545.931 237.246 545.931 243.905 551.336 249.31 558.002 249.31 564.663 249.31 570.067 243.905 570.067 237.246Z" fill="#CA8044" fill-rule="nonzero" fill-opacity="0.15" transform="matrix(1.00206 0 0 1 269.41 218)"/><g><path d="M570.476 27.4284C570.476 69.8418 536.097 104.22 493.683 104.22 451.27 104.22 416.893 69.8418 416.893 27.4284 416.893-14.9848 451.27-49.3706 493.683-49.3706 536.097-49.3706 570.476-14.9848 570.476 27.4284Z" stroke="#E8E8E8" stroke-width="2.31346" stroke-linecap="butt" stroke-linejoin="miter" stroke-miterlimit="10" stroke-opacity="1" fill="none" fill-rule="nonzero" transform="matrix(1.00206 0 0 -1 364.092 457.987)"/></g><path d="M493.683-49.3706C513.375-49.3706 529.339-14.9848 529.339 27.4284 529.339 69.8418 513.375 104.22 493.683 104.22" stroke="#E8E8E8" stroke-width="1.15672" stroke-linecap="butt" stroke-linejoin="miter" stroke-miterlimit="10" stroke-opacity="1" fill="none" fill-rule="nonzero" transform="matrix(1.00206 0 0 -1 364.092 457.987)"/><path d="M493.683 104.22C473.992 104.22 458.027 69.8418 458.027 27.4284 458.027-14.9848 473.992-49.3706 493.683-49.3706" stroke="#E8E8E8" stroke-width="1.15672" stroke-linecap="butt" stroke-linejoin="miter" stroke-miterlimit="10" stroke-opacity="1" fill="none" fill-rule="nonzero" transform="matrix(1.00206 0 0 -1 364.092 457.987)"/><path d="M493.683-49.3706C529.43-49.3706 558.41-14.9848 558.41 27.4284 558.41 69.8418 529.43 104.22 493.683 104.22" stroke="#E8E8E8" stroke-width="0.771135" stroke-linecap="butt" stroke-linejoin="miter" stroke-miterlimit="10" stroke-opacity="1" fill="none" fill-rule="nonzero" transform="matrix(1.00206 0 0 -1 364.092 457.987)"/><path d="M493.683 104.22C457.938 104.22 428.956 69.8418 428.956 27.4284 428.956-14.9848 457.938-49.3706 493.683-49.3706" stroke="#E8E8E8" stroke-width="0.771135" stroke-linecap="butt" stroke-linejoin="miter" stroke-miterlimit="10" stroke-opacity="1" fill="none" fill-rule="nonzero" transform="matrix(1.00206 0 0 -1 364.092 457.987)"/><path d="M416.893 27.4284 570.476 27.4284" stroke="#E8E8E8" stroke-width="1.15672" stroke-linecap="butt" stroke-linejoin="miter" stroke-miterlimit="10" stroke-opacity="1" fill="none" fill-rule="nonzero" transform="matrix(1.00206 0 0 -1 364.092 457.987)"/><path d="M423.468 60.3403C477.227 53.7563 510.139 53.7563 563.898 60.3403" stroke="#E8E8E8" stroke-width="0.963948" stroke-linecap="butt" stroke-linejoin="miter" stroke-miterlimit="10" stroke-opacity="1" fill="none" fill-rule="nonzero" transform="matrix(1.00206 0 0 -1 364.092 457.987)"/><path d="M423.468-5.48321C477.227 1.10065 510.139 1.10065 563.898-5.48321" stroke="#E8E8E8" stroke-width="0.963948" stroke-linecap="butt" stroke-linejoin="miter" stroke-miterlimit="10" stroke-opacity="1" fill="none" fill-rule="nonzero" transform="matrix(1.00206 0 0 -1 364.092 457.987)"/><path d="M1.81415 0 1.81415-15.2086 12.0036-15.2086 12.0036-12.5781 4.98891-12.5781 4.98891-9.04053 11.3687-9.04053 11.3687-6.50072 4.98891-6.50072 4.98891-2.63053 12.0036-2.63053 12.0036 0Z" fill="#E8E8E8" fill-rule="nonzero" fill-opacity="1" transform="matrix(1.00206 0 0 1 778.752 284.571)"/><path d="M1.81415 0 1.81415-15.2086 4.92845-15.2086 11.9129-4.95868 11.9129-15.2086 14.9063-15.2086 14.9063 0 11.792 0 4.77726-10.3104 4.77726 0Z" fill="#E8E8E8" fill-rule="nonzero" fill-opacity="1" transform="matrix(1.00206 0 0 1 792.035 284.571)"/><path d="M5.20057 0 0.0302359-15.2086 3.44689-15.2086 7.10544-3.23525 10.8244-15.2086 14.2411-15.2086 8.94981 0Z" fill="#E8E8E8" fill-rule="nonzero" fill-opacity="1" transform="matrix(1.00206 0 0 1 808.796 284.571)"/><path d="M1.81415 0 1.81415-15.2086 4.98891-15.2086 4.98891 0Z" fill="#E8E8E8" fill-rule="nonzero" fill-opacity="1" transform="matrix(1.00206 0 0 1 823.099 284.571)"/><path d="M1.81415 0 1.81415-15.2086 8.07298-15.2086C9.05564-15.2086 9.93247-15.065 10.7035-14.7853 11.4669-14.5208 12.0717-14.0748 12.5176-13.4549 12.9561-12.8502 13.1828-12.0339 13.1828-11.0059 13.1828-10.0383 12.9183-9.22193 12.3967-8.55676 11.8902-7.89155 11.1117-7.41534 10.0685-7.13566 10.7111-7.02983 11.2251-6.8333 11.6106-6.53094 11.9885-6.2437 12.306-5.86576 12.5479-5.38198 12.7898-4.89821 13.0014-4.29349 13.1828-3.56783L14.2109 0 10.8849 0 10.1592-2.93287C10.0156-3.59808 9.84177-4.1423 9.64525-4.56562 9.44115-4.98891 9.16902-5.29883 8.82887-5.50293 8.50383-5.69945 8.0503-5.80528 7.46827-5.80528L4.98891-5.80528 4.98891 0ZM4.98891-8.43581 7.55896-8.43581C8.04274-8.43581 8.46604-8.5114 8.82887-8.6777 9.1917-8.83644 9.46381-9.07076 9.64525-9.37311 9.84177-9.69059 9.94759-10.0837 9.94759-10.5523 9.94759-11.2175 9.74351-11.7164 9.34287-12.0641 8.9347-12.4043 8.39045-12.5781 7.71015-12.5781L4.98891-12.5781Z" fill="#E8E8E8" fill-rule="nonzero" fill-opacity="1" transform="matrix(1.00206 0 0 1 829.915 284.571)"/><path d="M8.52651 0.211651C6.93157 0.211651 5.57851-0.105825 4.47491-0.755896 3.38642-1.39841 2.54738-2.30549 1.96532-3.47713 1.39841-4.64121 1.11873-6.01694 1.11873-7.58921 1.11873-9.16147 1.39841-10.5296 1.96532-11.7013 2.54738-12.888 3.38642-13.8027 4.47491-14.4527 5.57851-15.0952 6.93157-15.4203 8.52651-15.4203 10.1139-15.4203 11.4594-15.0952 12.5479-14.4527 13.6515-13.8027 14.4905-12.888 15.0575-11.7013 15.6395-10.5296 15.9343-9.16147 15.9343-7.58921 15.9343-6.01694 15.6395-4.64121 15.0575-3.47713 14.4905-2.30549 13.6515-1.39841 12.5479-0.755896 11.4594-0.105825 10.1139 0.211651 8.52651 0.211651ZM8.52651-2.44909C9.50917-2.44909 10.3104-2.67587 10.9151-3.14453 11.5199-3.60562 11.9507-4.23302 12.2153-5.01915 12.495-5.80528 12.6386-6.65945 12.6386-7.58921 12.6386-8.53408 12.495-9.40336 12.2153-10.1895 11.9507-10.9756 11.5199-11.5955 10.9151-12.0641 10.3104-12.5252 9.50917-12.7595 8.52651-12.7595 7.53628-12.7595 6.7426-12.5252 6.13789-12.0641 5.53317-11.5955 5.08719-10.9756 4.80751-10.1895 4.52026-9.40336 4.38419-8.53408 4.38419-7.58921 4.38419-6.65945 4.52026-5.80528 4.80751-5.01915 5.08719-4.23302 5.53317-3.60562 6.13789-3.14453 6.7426-2.67587 7.53628-2.44909 8.52651-2.44909Z" fill="#E8E8E8" fill-rule="nonzero" fill-opacity="1" transform="matrix(1.00206 0 0 1 844.217 284.571)"/><path d="M1.81415 0 1.81415-15.2086 4.92845-15.2086 11.9129-4.95868 11.9129-15.2086 14.9063-15.2086 14.9063 0 11.792 0 4.77726-10.3104 4.77726 0Z" fill="#E8E8E8" fill-rule="nonzero" fill-opacity="1" transform="matrix(1.00206 0 0 1 861.303 284.571)"/><path d="M1.81415 0 1.81415-15.2086 5.47268-15.2086 10.2197-7.10544 8.98004-7.10544 13.6666-15.2086 17.174-15.2086 17.174 0 14.0597 0 14.0597-13.5154 15.4505-13.5154 10.4616-4.86796 8.52651-4.86796 3.41664-13.5154 4.86796-13.5154 4.86796 0Z" fill="#E8E8E8" fill-rule="nonzero" fill-opacity="1" transform="matrix(1.00206 0 0 1 878.064 284.571)"/><path d="M1.81415 0 1.81415-15.2086 12.0036-15.2086 12.0036-12.5781 4.98891-12.5781 4.98891-9.04053 11.3687-9.04053 11.3687-6.50072 4.98891-6.50072 4.98891-2.63053 12.0036-2.63053 12.0036 0Z" fill="#E8E8E8" fill-rule="nonzero" fill-opacity="1" transform="matrix(1.00206 0 0 1 897.096 284.571)"/><path d="M1.81415 0 1.81415-15.2086 4.92845-15.2086 11.9129-4.95868 11.9129-15.2086 14.9063-15.2086 14.9063 0 11.792 0 4.77726-10.3104 4.77726 0Z" fill="#E8E8E8" fill-rule="nonzero" fill-opacity="1" transform="matrix(1.00206 0 0 1 910.381 284.571)"/><path d="M4.26325 0 4.26325-12.5479 0.211651-12.5479 0.211651-15.2086 11.4896-15.2086 11.4896-12.5479 7.43802-12.5479 7.43802 0Z" fill="#E8E8E8" fill-rule="nonzero" fill-opacity="1" transform="matrix(1.00206 0 0 1 927.14 284.571)"/><path d="M87.7674 82.2839C191.99 164.563 301.693 164.563 400.369 86.6605" stroke="#CA8044" stroke-width="1.9279" stroke-linecap="butt" stroke-linejoin="miter" stroke-miterlimit="10" stroke-opacity="1" fill="none" fill-rule="nonzero" transform="matrix(1.00206 0 0 -1 364.092 457.987)"/><path d="M9.0685 0.000478267 2.92157 2.59805 4.98533-0.00386981 2.92465-2.59453Z" stroke="#CA8044" stroke-width="1.92933" stroke-linecap="butt" stroke-linejoin="miter" stroke-miterlimit="10" stroke-opacity="1" fill="#CA8044" fill-rule="nonzero" fill-opacity="1" transform="matrix(0.785883 0.61915 0.620426 -0.784268 761.748 368.539)"/><path d="M0.846604-3.59808 0.846604-4.83774 5.07962-4.83774 5.07962-3.59808Z" fill="#E8E8E8" fill-rule="nonzero" fill-opacity="1" transform="matrix(1.00206 0 0 1 561.814 255.56)"/><path d="M4.98891 0.151179C4.18011 0.151179 3.44689 0.022677 2.7817-0.211651 2.13162-0.468657 1.61006-0.861721 1.20943-1.39085 0.823927-1.91242 0.634953-2.60028 0.634953-3.44689L2.17698-3.44689C2.17698-2.84217 2.30549-2.36596 2.57004-2.02581 2.82706-1.67809 3.17475-1.4362 3.59808-1.30014 4.03649-1.15652 4.52026-1.08849 5.0494-1.08849 5.53317-1.08849 5.96402-1.15652 6.34953-1.30014 6.75015-1.4362 7.07519-1.64785 7.31708-1.93509 7.55896-2.23745 7.67991-2.6154 7.67991-3.08406 7.67991-3.48468 7.57408-3.80972 7.37755-4.0516 7.19613-4.3086 6.89377-4.53538 6.47047-4.71679 6.04717-4.91332 5.45757-5.10985 4.71679-5.29128 3.87019-5.51049 3.15964-5.75238 2.60028-6.01694 2.05604-6.29662 1.64029-6.63677 1.36061-7.04494 1.09605-7.44559 0.967547-7.95204 0.967547-8.55676 0.967547-9.19927 1.11873-9.74351 1.42109-10.1895 1.73856-10.6279 2.18455-10.9605 2.75147-11.1873 3.31083-11.4292 3.99113-11.5501 4.77726-11.5501 5.51804-11.5501 6.19834-11.4292 6.80306-11.1873 7.40777-10.9605 7.89155-10.6128 8.25438-10.129 8.61721-9.66036 8.79864-9.07832 8.79864-8.37532L7.28683-8.37532C7.28683-9.01785 7.04494-9.50162 6.56117-9.82664 6.0774-10.1441 5.48025-10.3104 4.77726-10.3104 4.0516-10.3104 3.48468-10.1668 3.08406-9.88713 2.67587-9.59989 2.47934-9.17659 2.47934-8.61721 2.47934-8.26951 2.55492-7.98983 2.72123-7.77061 2.90264-7.54385 3.205-7.34732 3.6283-7.16589 4.06672-6.98449 4.67143-6.78794 5.44245-6.59142 6.30417-6.36464 7.01472-6.11521 7.55896-5.83551 8.11832-5.57096 8.53408-5.23079 8.79864-4.80751 9.05564-4.38419 9.1917-3.81728 9.1917-3.1143 9.1917-2.38864 8.99517-1.78392 8.61721-1.30014 8.25438-0.816368 7.75549-0.453538 7.13566-0.211651 6.50827 0.022677 5.79017 0.151179 4.98891 0.151179Z" fill="#E8E8E8" fill-rule="nonzero" fill-opacity="1" transform="matrix(1.00206 0 0 1 571.255 255.56)"/><path d="M4.11208 0C3.44689 0 2.93287-0.0982664 2.57004-0.302359 2.22234-0.521568 1.98045-0.831487 1.84439-1.23967 1.72344-1.64029 1.66297-2.11651 1.66297-2.66076L1.66297-7.10544 0.272123-7.10544 0.272123-8.25438 1.66297-8.25438 1.66297-10.129 3.05381-10.129 3.05381-8.25438 5.07962-8.25438 5.07962-7.10544 3.05381-7.10544 3.05381-2.75147C3.05381-2.22234 3.1143-1.82171 3.23525-1.54203 3.3713-1.27746 3.69634-1.14896 4.20279-1.14896L5.10985-1.14896 5.10985 0Z" fill="#E8E8E8" fill-rule="nonzero" fill-opacity="1" transform="matrix(1.00206 0 0 1 581.096 255.56)"/><path d="M3.47713 0.151179C3.00847 0.151179 2.5776 0.0529128 2.17698-0.120943 1.79147-0.302359 1.48156-0.559362 1.23967-0.907076 1.0129-1.26991 0.907076-1.70832 0.907076-2.23745 0.907076-2.96311 1.13385-3.51493 1.6025-3.90042 2.0636-4.30106 2.72123-4.56562 3.56783-4.68657 4.41443-4.82262 5.3971-4.90577 6.53094-4.92845L6.53094-5.50293C6.53094-6.20591 6.34953-6.68968 5.9867-6.95425 5.63898-7.21125 5.20813-7.34732 4.68657-7.34732 4.09696-7.34732 3.61319-7.19613 3.23525-6.89377 2.84974-6.60653 2.66076-6.16811 2.66076-5.5634L1.26991-5.5634C1.26991-6.22859 1.40597-6.77283 1.69321-7.19613 1.99557-7.61943 2.39619-7.92179 2.90264-8.10321 3.42421-8.29974 4.02136-8.40557 4.68657-8.40557 5.10985-8.40557 5.51049-8.36021 5.896-8.28462 6.27394-8.20147 6.62166-8.0503 6.924-7.8311 7.24149-7.627 7.49849-7.33219 7.67991-6.95425 7.86132-6.59142 7.95204-6.10764 7.95204-5.50293L7.95204 0 6.62166 0 6.56117-1.23967C6.17568-0.816368 5.7297-0.468657 5.23079-0.211651 4.74702 0.022677 4.15743 0.151179 3.47713 0.151179ZM3.87019-0.937311C4.42955-0.937311 4.936-1.06581 5.38198-1.33038 5.84308-1.58738 6.22859-1.91998 6.53094-2.32815L6.53094-4.02136C5.01915-3.9987 3.93823-3.85508 3.2957-3.59808 2.64564-3.33351 2.32815-2.90264 2.32815-2.29792 2.32815-1.87462 2.45666-1.54203 2.72123-1.30014 2.97823-1.05825 3.36374-0.937311 3.87019-0.937311Z" fill="#E8E8E8" fill-rule="nonzero" fill-opacity="1" transform="matrix(1.00206 0 0 1 586.659 255.56)"/><path d="M4.11208 0C3.44689 0 2.93287-0.0982664 2.57004-0.302359 2.22234-0.521568 1.98045-0.831487 1.84439-1.23967 1.72344-1.64029 1.66297-2.11651 1.66297-2.66076L1.66297-7.10544 0.272123-7.10544 0.272123-8.25438 1.66297-8.25438 1.66297-10.129 3.05381-10.129 3.05381-8.25438 5.07962-8.25438 5.07962-7.10544 3.05381-7.10544 3.05381-2.75147C3.05381-2.22234 3.1143-1.82171 3.23525-1.54203 3.3713-1.27746 3.69634-1.14896 4.20279-1.14896L5.10985-1.14896 5.10985 0Z" fill="#E8E8E8" fill-rule="nonzero" fill-opacity="1" transform="matrix(1.00206 0 0 1 595.734 255.56)"/><path d="M4.80751 0.151179C3.90042 0.151179 3.15209-0.0302359 2.57004-0.393066 2.00313-0.771015 1.57982-1.28502 1.30014-1.93509 1.03558-2.5776 0.907076-3.30326 0.907076-4.11208 0.907076-4.95868 1.03558-5.69945 1.30014-6.34953 1.55715-6.99204 1.96532-7.49849 2.50959-7.86132 3.06894-8.22415 3.77947-8.40557 4.62608-8.40557 5.75238-8.40557 6.62921-8.05785 7.2566-7.37755 7.89911-6.68968 8.22415-5.71457 8.22415-4.44468 8.22415-4.36153 8.22415-4.26325 8.22415-4.1423 8.22415-4.03649 8.20904-3.96091 8.19393-3.90042L2.32815-3.90042C2.32815-3.3713 2.40376-2.87996 2.57004-2.41887 2.72879-1.97289 2.99336-1.61006 3.35619-1.33038 3.71902-1.06581 4.20279-0.937311 4.80751-0.937311 5.42734-0.937311 5.91111-1.08849 6.25883-1.39085 6.62166-1.69321 6.81062-2.11651 6.8333-2.66076L8.22415-2.66076C8.22415-2.07115 8.08053-1.57226 7.80085-1.14896 7.5136-0.740777 7.11298-0.423302 6.59142-0.181415 6.08496 0.0377947 5.48781 0.151179 4.80751 0.151179ZM2.32815-4.92845 6.8333-4.92845C6.81062-5.71457 6.60653-6.30417 6.22859-6.71236 5.84308-7.11298 5.3064-7.31708 4.62608-7.31708 3.93823-7.31708 3.39398-7.11298 2.99336-6.71236 2.60785-6.30417 2.38864-5.71457 2.32815-4.92845Z" fill="#E8E8E8" fill-rule="nonzero" fill-opacity="1" transform="matrix(1.00206 0 0 1 601.264 255.56)"/><path d="M6.89377-6.50072C6.13789-6.41 6.0774-5.83551 6.0774-5.71457 6.0774-5.41223 6.28906-5.20057 6.62166-5.20057 7.10544-5.20057 7.43802-5.59362 7.43802-6.16811 7.43802-7.01472 6.59142-7.67991 5.32151-7.67991 2.99336-7.67991 2.32815-5.92623 2.32815-5.1401 2.32815-4.47491 2.66076-4.1423 2.87242-3.93066 3.23525-3.59808 3.68877-3.47713 4.32374-3.35619 5.10985-3.205 5.26104-3.17475 5.59362-2.96311 5.86576-2.75147 6.01694-2.47934 6.01694-2.08626 6.01694-1.66297 5.59362-0.241887 3.50736-0.241887 3.1143-0.241887 1.90486-0.302359 1.51179-1.08849 2.38864-1.08849 2.53981-1.78392 2.53981-2.02581 2.53981-2.53981 2.08626-2.66076 1.90486-2.66076 1.57226-2.66076 0.907076-2.41887 0.907076-1.51179 0.907076-0.423302 2.02581 0.181415 3.47713 0.181415 6.41 0.181415 7.04494-1.93509 7.04494-2.69098 7.04494-3.35619 6.68211-3.77947 6.47047-3.96091 6.01694-4.44468 5.47268-4.53538 4.86796-4.65632 4.65632-4.71679 4.26325-4.77726 4.20279-4.80751 3.65853-4.92845 3.32594-5.26104 3.32594-5.71457 3.32594-5.896 3.44689-6.47047 3.93066-6.8333 4.41443-7.22638 5.07962-7.22638 5.32151-7.22638 5.92623-7.22638 6.62166-7.04494 6.89377-6.50072Z" fill="#E8E8E8" fill-rule="nonzero" fill-opacity="1" transform="matrix(1.00206 0 0 1 618.794 255.56)"/><path d="M9.73594-3.96091C10.0383-3.96091 10.3709-3.96091 10.3709-4.35396 10.3709-4.71679 10.0383-4.71679 9.73594-4.71679L2.2677-4.71679C2.41887-6.86355 4.29349-8.82887 6.98449-8.82887L9.73594-8.82887C10.0383-8.82887 10.3709-8.82887 10.3709-9.1917 10.3709-9.58476 10.0383-9.58476 9.73594-9.58476L6.95425-9.58476C3.90042-9.58476 1.48156-7.19613 1.48156-4.35396 1.48156-1.45132 3.93066 0.87684 6.95425 0.87684L9.73594 0.87684C10.0383 0.87684 10.3709 0.87684 10.3709 0.514009 10.3709 0.151179 10.0383 0.151179 9.73594 0.151179L6.98449 0.151179C4.29349 0.151179 2.41887-1.81415 2.2677-3.96091Z" fill="#E8E8E8" fill-rule="nonzero" fill-opacity="1" transform="matrix(1.00206 0 0 1 632.082 255.56)"/><path d="M2.05604-3.80972C2.81192-4.17255 2.87242-4.47491 2.87242-4.50513 2.87242-4.62608 2.7817-4.62608 2.66076-4.62608 2.02581-4.62608 0.332594-3.83996 0.332594-2.17698 0.332594-0.907076 1.81415 0.393066 3.96091 0.393066 6.89377 0.393066 10.2197-1.6025 10.2197-3.96091 10.2197-5.62387 8.40557-6.41 7.04494-6.98449 6.47047-7.22638 4.86796-7.92179 4.86796-9.28242 4.86796-9.85689 5.17034-10.4918 5.59362-10.8244 6.01694-11.1268 6.77283-11.278 7.34732-11.278 7.55896-11.278 8.28462-11.2175 8.98004-10.9454 9.37311-10.764 9.88713-10.5825 9.88713-9.79642 9.88713-9.55453 9.82664-9.34287 9.79642-9.34287 9.79642-9.28242 9.76619-9.16147 9.76619-9.10098 9.76619-9.07076 9.79642-8.98004 9.94759-8.98004 10.1592-8.98004 10.7337-9.25217 11.0059-9.49406 11.1873-9.67547 11.3989-9.88713 11.3989-10.5523 11.3989-11.4292 10.8244-11.671 10.4011-11.8827 9.55453-12.2455 8.7684-12.2455 8.52651-12.2455 6.19834-12.2455 3.35619-10.4918 3.35619-8.49627 3.35619-7.01472 5.01915-6.31928 5.71457-6.01694 7.01472-5.47268 8.70793-4.71679 8.70793-3.205 8.70793-2.57004 8.37532-1.69321 7.64966-1.20943 6.95425-0.755896 5.80528-0.604717 5.1401-0.604717 3.32594-0.604717 1.84439-1.75368 1.84439-2.93287 1.84439-3.23525 1.90486-3.53759 2.05604-3.80972Z" fill="#E8E8E8" fill-rule="nonzero" fill-opacity="1" transform="matrix(1.00206 0 0 1 648.946 255.56)"/><path d="M0.846604-3.59808 0.846604-4.83774 5.07962-4.83774 5.07962-3.59808Z" fill="#E8E8E8" fill-rule="nonzero" fill-opacity="1" transform="matrix(1.00206 0 0 1 537.595 280.244)"/><path d="M3.38642 0 3.38642-10.129 0.151179-10.129 0.151179-11.3989 8.16368-11.3989 8.16368-10.129 4.92845-10.129 4.92845 0Z" fill="#E8E8E8" fill-rule="nonzero" fill-opacity="1" transform="matrix(1.00206 0 0 1 547.036 280.244)"/><path d="M3.47713 0.151179C3.00847 0.151179 2.5776 0.0529128 2.17698-0.120943 1.79147-0.302359 1.48156-0.559362 1.23967-0.907076 1.0129-1.26991 0.907076-1.70832 0.907076-2.23745 0.907076-2.96311 1.13385-3.51493 1.6025-3.90042 2.0636-4.30106 2.72123-4.56562 3.56783-4.68657 4.41443-4.82262 5.3971-4.90577 6.53094-4.92845L6.53094-5.50293C6.53094-6.20591 6.34953-6.68968 5.9867-6.95425 5.63898-7.21125 5.20813-7.34732 4.68657-7.34732 4.09696-7.34732 3.61319-7.19613 3.23525-6.89377 2.84974-6.60653 2.66076-6.16811 2.66076-5.5634L1.26991-5.5634C1.26991-6.22859 1.40597-6.77283 1.69321-7.19613 1.99557-7.61943 2.39619-7.92179 2.90264-8.10321 3.42421-8.29974 4.02136-8.40557 4.68657-8.40557 5.10985-8.40557 5.51049-8.36021 5.896-8.28462 6.27394-8.20147 6.62166-8.0503 6.924-7.8311 7.24149-7.627 7.49849-7.33219 7.67991-6.95425 7.86132-6.59142 7.95204-6.10764 7.95204-5.50293L7.95204 0 6.62166 0 6.56117-1.23967C6.17568-0.816368 5.7297-0.468657 5.23079-0.211651 4.74702 0.022677 4.15743 0.151179 3.47713 0.151179ZM3.87019-0.937311C4.42955-0.937311 4.936-1.06581 5.38198-1.33038 5.84308-1.58738 6.22859-1.91998 6.53094-2.32815L6.53094-4.02136C5.01915-3.9987 3.93823-3.85508 3.2957-3.59808 2.64564-3.33351 2.32815-2.90264 2.32815-2.29792 2.32815-1.87462 2.45666-1.54203 2.72123-1.30014 2.97823-1.05825 3.36374-0.937311 3.87019-0.937311Z" fill="#E8E8E8" fill-rule="nonzero" fill-opacity="1" transform="matrix(1.00206 0 0 1 554.059 280.244)"/><path d="M1.36061 0 1.36061-11.3989 2.7817-11.3989 2.7817-4.35396 6.50072-8.25438 8.16368-8.25438 4.44468-4.38419 8.52651 0 6.7426 0 2.7817-4.29349 2.7817 0Z" fill="#E8E8E8" fill-rule="nonzero" fill-opacity="1" transform="matrix(1.00206 0 0 1 563.291 280.244)"/><path d="M4.80751 0.151179C3.90042 0.151179 3.15209-0.0302359 2.57004-0.393066 2.00313-0.771015 1.57982-1.28502 1.30014-1.93509 1.03558-2.5776 0.907076-3.30326 0.907076-4.11208 0.907076-4.95868 1.03558-5.69945 1.30014-6.34953 1.55715-6.99204 1.96532-7.49849 2.50959-7.86132 3.06894-8.22415 3.77947-8.40557 4.62608-8.40557 5.75238-8.40557 6.62921-8.05785 7.2566-7.37755 7.89911-6.68968 8.22415-5.71457 8.22415-4.44468 8.22415-4.36153 8.22415-4.26325 8.22415-4.1423 8.22415-4.03649 8.20904-3.96091 8.19393-3.90042L2.32815-3.90042C2.32815-3.3713 2.40376-2.87996 2.57004-2.41887 2.72879-1.97289 2.99336-1.61006 3.35619-1.33038 3.71902-1.06581 4.20279-0.937311 4.80751-0.937311 5.42734-0.937311 5.91111-1.08849 6.25883-1.39085 6.62166-1.69321 6.81062-2.11651 6.8333-2.66076L8.22415-2.66076C8.22415-2.07115 8.08053-1.57226 7.80085-1.14896 7.5136-0.740777 7.11298-0.423302 6.59142-0.181415 6.08496 0.0377947 5.48781 0.151179 4.80751 0.151179ZM2.32815-4.92845 6.8333-4.92845C6.81062-5.71457 6.60653-6.30417 6.22859-6.71236 5.84308-7.11298 5.3064-7.31708 4.62608-7.31708 3.93823-7.31708 3.39398-7.11298 2.99336-6.71236 2.60785-6.30417 2.38864-5.71457 2.32815-4.92845Z" fill="#E8E8E8" fill-rule="nonzero" fill-opacity="1" transform="matrix(1.00206 0 0 1 571.36 280.244)"/><path d="M3.47713 0.151179C3.00847 0.151179 2.5776 0.0529128 2.17698-0.120943 1.79147-0.302359 1.48156-0.559362 1.23967-0.907076 1.0129-1.26991 0.907076-1.70832 0.907076-2.23745 0.907076-2.96311 1.13385-3.51493 1.6025-3.90042 2.0636-4.30106 2.72123-4.56562 3.56783-4.68657 4.41443-4.82262 5.3971-4.90577 6.53094-4.92845L6.53094-5.50293C6.53094-6.20591 6.34953-6.68968 5.9867-6.95425 5.63898-7.21125 5.20813-7.34732 4.68657-7.34732 4.09696-7.34732 3.61319-7.19613 3.23525-6.89377 2.84974-6.60653 2.66076-6.16811 2.66076-5.5634L1.26991-5.5634C1.26991-6.22859 1.40597-6.77283 1.69321-7.19613 1.99557-7.61943 2.39619-7.92179 2.90264-8.10321 3.42421-8.29974 4.02136-8.40557 4.68657-8.40557 5.10985-8.40557 5.51049-8.36021 5.896-8.28462 6.27394-8.20147 6.62166-8.0503 6.924-7.8311 7.24149-7.627 7.49849-7.33219 7.67991-6.95425 7.86132-6.59142 7.95204-6.10764 7.95204-5.50293L7.95204 0 6.62166 0 6.56117-1.23967C6.17568-0.816368 5.7297-0.468657 5.23079-0.211651 4.74702 0.022677 4.15743 0.151179 3.47713 0.151179ZM3.87019-0.937311C4.42955-0.937311 4.936-1.06581 5.38198-1.33038 5.84308-1.58738 6.22859-1.91998 6.53094-2.32815L6.53094-4.02136C5.01915-3.9987 3.93823-3.85508 3.2957-3.59808 2.64564-3.33351 2.32815-2.90264 2.32815-2.29792 2.32815-1.87462 2.45666-1.54203 2.72123-1.30014 2.97823-1.05825 3.36374-0.937311 3.87019-0.937311Z" fill="#E8E8E8" fill-rule="nonzero" fill-opacity="1" transform="matrix(1.00206 0 0 1 584.034 280.244)"/><path d="M4.71679 0.151179C3.96845 0.151179 3.30326 0 2.72123-0.302359 2.1543-0.619834 1.70832-1.09605 1.39085-1.72344 1.06581-2.36596 0.907076-3.15964 0.907076-4.11208 0.907076-5.05694 1.05825-5.84308 1.36061-6.47047 1.67809-7.11298 2.12408-7.59676 2.69098-7.92179 3.27304-8.23927 3.94577-8.40557 4.71679-8.40557 5.3593-8.40557 5.93379-8.29219 6.44023-8.07298 6.96181-7.86889 7.37755-7.55896 7.67991-7.13566 7.98226-6.71236 8.141-6.17568 8.16368-5.53317L6.7426-5.53317C6.71993-6.0774 6.53094-6.50072 6.16811-6.80306 5.8204-7.10544 5.35174-7.2566 4.74702-7.2566 3.93823-7.2566 3.33351-6.96936 2.93287-6.41 2.54738-5.86576 2.3584-5.09474 2.3584-4.11208 2.3584-3.44689 2.43398-2.87996 2.60028-2.41887 2.7817-1.95021 3.05381-1.6025 3.41664-1.36061 3.77947-1.11873 4.21791-0.997783 4.74702-0.997783 5.35174-0.997783 5.83551-1.14896 6.19834-1.45132 6.5763-1.7688 6.7804-2.23745 6.80306-2.84217L8.22415-2.84217C8.20147-2.17698 8.02762-1.61762 7.71015-1.1792 7.40777-0.733219 6.99204-0.400625 6.47047-0.181415 5.94134 0.0377947 5.3593 0.151179 4.71679 0.151179Z" fill="#E8E8E8" fill-rule="nonzero" fill-opacity="1" transform="matrix(1.00206 0 0 1 593.266 280.244)"/><path d="M4.11208 0C3.44689 0 2.93287-0.0982664 2.57004-0.302359 2.22234-0.521568 1.98045-0.831487 1.84439-1.23967 1.72344-1.64029 1.66297-2.11651 1.66297-2.66076L1.66297-7.10544 0.272123-7.10544 0.272123-8.25438 1.66297-8.25438 1.66297-10.129 3.05381-10.129 3.05381-8.25438 5.07962-8.25438 5.07962-7.10544 3.05381-7.10544 3.05381-2.75147C3.05381-2.22234 3.1143-1.82171 3.23525-1.54203 3.3713-1.27746 3.69634-1.14896 4.20279-1.14896L5.10985-1.14896 5.10985 0Z" fill="#E8E8E8" fill-rule="nonzero" fill-opacity="1" transform="matrix(1.00206 0 0 1 602.395 280.244)"/><path d="M1.36061 0 1.36061-8.25438 2.7817-8.25438 2.7817 0ZM2.05604-9.79642C1.79147-9.79642 1.57982-9.872 1.42109-10.0383 1.25479-10.197 1.1792-10.386 1.1792-10.6128 1.1792-10.8547 1.25479-11.0512 1.42109-11.2175 1.57982-11.3762 1.79147-11.4594 2.05604-11.4594 2.33572-11.4594 2.55492-11.3762 2.72123-11.2175 2.87996-11.0512 2.96311-10.8547 2.96311-10.6128 2.96311-10.386 2.87996-10.197 2.72123-10.0383 2.55492-9.872 2.33572-9.79642 2.05604-9.79642Z" fill="#E8E8E8" fill-rule="nonzero" fill-opacity="1" transform="matrix(1.00206 0 0 1 608.01 280.244)"/><path d="M4.74702 0.120943C3.93823 0.120943 3.24279-0.0377947 2.66076-0.36283 2.09383-0.702983 1.66297-1.18676 1.36061-1.81415 1.05825-2.45666 0.907076-3.22011 0.907076-4.11208 0.907076-4.99647 1.05825-5.75993 1.36061-6.41 1.66297-7.05251 2.09383-7.54385 2.66076-7.89155 3.24279-8.23172 3.93823-8.40557 4.74702-8.40557 5.57096-8.40557 6.27394-8.23172 6.86355-7.89155 7.44559-7.54385 7.89155-7.05251 8.19393-6.41 8.5114-5.75993 8.6777-4.99647 8.6777-4.11208 8.6777-3.22011 8.5114-2.45666 8.19393-1.81415 7.89155-1.18676 7.44559-0.702983 6.86355-0.36283 6.27394-0.0377947 5.57096 0.120943 4.74702 0.120943ZM4.74702-0.997783C5.35174-0.997783 5.83551-1.12629 6.19834-1.39085 6.56117-1.64785 6.81819-2.01068 6.98449-2.47934 7.14323-2.96311 7.22638-3.50736 7.22638-4.11208 7.22638-4.71679 7.14323-5.26104 6.98449-5.74481 6.81819-6.22859 6.56117-6.59898 6.19834-6.86355 5.83551-7.14323 5.35174-7.28683 4.74702-7.28683 4.15743-7.28683 3.68877-7.14323 3.32594-6.86355 2.97823-6.59898 2.72879-6.22859 2.57004-5.74481 2.42643-5.26104 2.3584-4.71679 2.3584-4.11208 2.3584-3.50736 2.42643-2.96311 2.57004-2.47934 2.72879-2.01068 2.97823-1.64785 3.32594-1.39085 3.68877-1.12629 4.15743-0.997783 4.74702-0.997783Z" fill="#E8E8E8" fill-rule="nonzero" fill-opacity="1" transform="matrix(1.00206 0 0 1 612.166 280.244)"/><path d="M1.36061 0 1.36061-8.25438 2.72123-8.25438 2.7817-6.98449C3.02359-7.30196 3.3713-7.61943 3.83996-7.92179 4.32374-8.22415 4.936-8.37532 5.68434-8.37532 6.59142-8.37532 7.24149-8.10321 7.64966-7.55896 8.07298-7.02983 8.28462-6.28906 8.28462-5.32151L8.28462 0 6.86355 0 6.86355-5.10985C6.86355-5.51049 6.81819-5.86576 6.7426-6.16811 6.65945-6.48559 6.50827-6.7426 6.28906-6.924 6.06228-7.10544 5.75238-7.19613 5.35174-7.19613 4.72436-7.19613 4.20279-7.05251 3.77947-6.77283 3.3713-6.48559 3.0387-6.17568 2.7817-5.83551L2.7817 0Z" fill="#E8E8E8" fill-rule="nonzero" fill-opacity="1" transform="matrix(1.00206 0 0 1 621.762 280.244)"/><path d="M6.62166-6.59142C6.28906-7.22638 5.77506-7.67991 4.98891-7.67991 2.96311-7.67991 0.72566-5.26104 0.72566-2.63053 0.72566-0.72566 1.93509 0.181415 3.1143 0.181415 4.23302 0.181415 5.1401-0.755896 5.44245-1.08849 5.62387-0.120943 6.50072 0.181415 7.04494 0.181415 7.55896 0.181415 7.98226-0.0302359 8.37532-0.755896 8.6777-1.33038 8.91959-2.41887 8.91959-2.47934 8.91959-2.57004 8.8591-2.69098 8.70793-2.69098 8.49627-2.69098 8.46604-2.60028 8.40557-2.2677 8.01249-0.755896 7.64966-0.241887 7.10544-0.241887 6.65189-0.241887 6.56117-0.665189 6.56117-1.02802 6.56117-1.36061 6.65189-1.72344 6.80306-2.32815L7.22638-4.11208C7.34732-4.53538 7.67991-5.83551 7.74038-6.10764 7.80085-6.34953 7.92179-6.77283 7.92179-6.8333 7.92179-7.10544 7.67991-7.31708 7.37755-7.31708 7.13566-7.31708 6.71236-7.19613 6.62166-6.59142ZM5.50293-2.11651C5.41223-1.78392 5.41223-1.78392 5.1401-1.45132 4.50513-0.695425 3.80972-0.241887 3.14453-0.241887 2.29792-0.241887 2.02581-1.11873 2.02581-1.87462 2.02581-2.72123 2.50959-4.71679 2.93287-5.5634 3.47713-6.59142 4.29349-7.22638 4.98891-7.22638 6.13789-7.22638 6.41-5.83551 6.41-5.71457 6.41-5.65411 6.37977-5.53317 6.34953-5.47268Z" fill="#E8E8E8" fill-rule="nonzero" fill-opacity="1" transform="matrix(1.00206 0 0 1 639.705 280.244)"/><path d="M9.73594-3.96091C10.0383-3.96091 10.3709-3.96091 10.3709-4.35396 10.3709-4.71679 10.0383-4.71679 9.73594-4.71679L2.2677-4.71679C2.41887-6.86355 4.29349-8.82887 6.98449-8.82887L9.73594-8.82887C10.0383-8.82887 10.3709-8.82887 10.3709-9.1917 10.3709-9.58476 10.0383-9.58476 9.73594-9.58476L6.95425-9.58476C3.90042-9.58476 1.48156-7.19613 1.48156-4.35396 1.48156-1.45132 3.93066 0.87684 6.95425 0.87684L9.73594 0.87684C10.0383 0.87684 10.3709 0.87684 10.3709 0.514009 10.3709 0.151179 10.0383 0.151179 9.73594 0.151179L6.98449 0.151179C4.29349 0.151179 2.41887-1.81415 2.2677-3.96091Z" fill="#E8E8E8" fill-rule="nonzero" fill-opacity="1" transform="matrix(1.00206 0 0 1 654.135 280.244)"/><path d="M10.5825-2.87242C10.6732-1.96532 10.8547-1.1792 10.9756-0.72566 11.1873 0.0907076 11.278 0.514009 12.0339 0.514009 12.8502 0.514009 14.2109-0.272123 14.2109-0.634953 14.2109-0.665189 14.2109-0.755896 14.0597-0.755896 14.0294-0.755896 13.8178-0.72566 13.4852-0.544245 13.3038-0.453538 13.2735-0.453538 13.2131-0.453538 12.6991-0.453538 12.5781-0.997783 12.3665-2.02581 12.2153-2.7817 12.0943-3.32594 11.9129-5.896 11.792-7.43802 11.7013-8.94981 11.7013-10.4918L11.7013-12.1246C11.7013-12.4572 11.7013-12.5479 11.5199-12.5479 11.3082-12.5479 10.6128-12.306 10.2197-11.792L10.0988-11.5803C10.0685-11.5501 8.82887-8.82887 6.62166-5.35174 5.71457-3.96091 3.65853-0.755896 2.66076-0.755896 2.17698-0.755896 1.42109-1.11873 1.23967-1.72344 1.20943-1.84439 1.20943-1.93509 1.11873-1.93509 0.846604-1.93509 0.453538-1.02802 0.453538-0.574481 0.453538 0.0302359 1.20943 0.87684 2.08626 0.87684 3.14453 0.87684 4.47491-1.02802 5.74481-2.87242ZM10.1895-10.4314 10.1895-9.67547C10.1895-7.71015 10.4011-4.80751 10.4918-3.83996L7.22638-3.83996C6.924-3.83996 6.68211-3.83996 6.19834-3.53759 7.28683-5.20057 7.8311-6.10764 8.46604-7.19613 9.55453-9.16147 9.91736-9.94759 10.1592-10.4314Z" fill="#E8E8E8" fill-rule="nonzero" fill-opacity="1" transform="matrix(1.00206 0 0 1 671 280.244)"/><path d="M405.917-27.4269C301.693-109.706 191.99-109.706 93.3157-31.8035" stroke="#CA8044" stroke-width="1.9279" stroke-linecap="butt" stroke-linejoin="miter" stroke-miterlimit="10" stroke-opacity="1" fill="none" fill-rule="nonzero" transform="matrix(1.00206 0 0 -1 364.092 457.987)"/><path d="M9.07038-0.00220307 2.92344 2.59538 4.98252-0.000613541 2.92186-2.59125Z" stroke="#CA8044" stroke-width="1.92933" stroke-linecap="butt" stroke-linejoin="miter" stroke-miterlimit="10" stroke-opacity="1" fill="#CA8044" fill-rule="nonzero" fill-opacity="1" transform="matrix(-0.785883 -0.61915 -0.620426 0.784268 461.136 492.58)"/><path d="M0.846604-3.59808 0.846604-4.83774 5.07962-4.83774 5.07962-3.59808Z" fill="#E8E8E8" fill-rule="nonzero" fill-opacity="1" transform="matrix(1.00206 0 0 1 557.067 613.489)"/><path d="M6.37977 0.151179C5.18545 0.151179 4.18011-0.0907076 3.35619-0.574481 2.54738-1.07337 1.93509-1.76124 1.51179-2.63053 1.10361-3.51493 0.907076-4.53538 0.907076-5.68434 0.907076-6.84842 1.10361-7.87644 1.51179-8.7684 1.93509-9.65279 2.54738-10.3407 3.35619-10.8244 4.18011-11.3082 5.18545-11.5501 6.37977-11.5501 6.96181-11.5501 7.5136-11.4669 8.04274-11.3082 8.58698-11.1646 9.07076-10.9454 9.49406-10.643 9.93247-10.3407 10.2953-9.95515 10.5825-9.49406 10.8622-9.04808 11.0361-8.5114 11.0966-7.89155L9.58476-7.89155C9.5243-8.32998 9.35044-8.73815 9.07076-9.10098 8.80619-9.46381 8.44336-9.75106 7.98226-9.97783 7.53628-10.197 6.99204-10.3104 6.34953-10.3104 5.44245-10.3104 4.69411-10.0988 4.11208-9.67547 3.54515-9.26728 3.12185-8.71549 2.84217-8.01249 2.5776-7.32464 2.44909-6.54606 2.44909-5.68434 2.44909-4.83774 2.5776-4.05917 2.84217-3.35619 3.12185-2.66832 3.54515-2.12408 4.11208-1.72344 4.69411-1.31526 5.45002-1.11873 6.37977-1.11873 7.16589-1.11873 7.80842-1.25479 8.31487-1.54203 8.83644-1.82171 9.22193-2.21477 9.46381-2.72123 9.72083-3.24279 9.86445-3.83996 9.88713-4.50513L6.53094-4.50513 6.53094-5.77506 11.3687-5.77506 11.3687-4.86796C11.3687-3.87776 11.1722-3.00091 10.7942-2.23745 10.4314-1.48912 9.872-0.907076 9.13123-0.483774 8.40557-0.0604717 7.48338 0.151179 6.37977 0.151179Z" fill="#E8E8E8" fill-rule="nonzero" fill-opacity="1" transform="matrix(1.00206 0 0 1 566.508 613.489)"/><path d="M4.80751 0.151179C3.90042 0.151179 3.15209-0.0302359 2.57004-0.393066 2.00313-0.771015 1.57982-1.28502 1.30014-1.93509 1.03558-2.5776 0.907076-3.30326 0.907076-4.11208 0.907076-4.95868 1.03558-5.69945 1.30014-6.34953 1.55715-6.99204 1.96532-7.49849 2.50959-7.86132 3.06894-8.22415 3.77947-8.40557 4.62608-8.40557 5.75238-8.40557 6.62921-8.05785 7.2566-7.37755 7.89911-6.68968 8.22415-5.71457 8.22415-4.44468 8.22415-4.36153 8.22415-4.26325 8.22415-4.1423 8.22415-4.03649 8.20904-3.96091 8.19393-3.90042L2.32815-3.90042C2.32815-3.3713 2.40376-2.87996 2.57004-2.41887 2.72879-1.97289 2.99336-1.61006 3.35619-1.33038 3.71902-1.06581 4.20279-0.937311 4.80751-0.937311 5.42734-0.937311 5.91111-1.08849 6.25883-1.39085 6.62166-1.69321 6.81062-2.11651 6.8333-2.66076L8.22415-2.66076C8.22415-2.07115 8.08053-1.57226 7.80085-1.14896 7.5136-0.740777 7.11298-0.423302 6.59142-0.181415 6.08496 0.0377947 5.48781 0.151179 4.80751 0.151179ZM2.32815-4.92845 6.8333-4.92845C6.81062-5.71457 6.60653-6.30417 6.22859-6.71236 5.84308-7.11298 5.3064-7.31708 4.62608-7.31708 3.93823-7.31708 3.39398-7.11298 2.99336-6.71236 2.60785-6.30417 2.38864-5.71457 2.32815-4.92845Z" fill="#E8E8E8" fill-rule="nonzero" fill-opacity="1" transform="matrix(1.00206 0 0 1 578.818 613.489)"/><path d="M4.11208 0C3.44689 0 2.93287-0.0982664 2.57004-0.302359 2.22234-0.521568 1.98045-0.831487 1.84439-1.23967 1.72344-1.64029 1.66297-2.11651 1.66297-2.66076L1.66297-7.10544 0.272123-7.10544 0.272123-8.25438 1.66297-8.25438 1.66297-10.129 3.05381-10.129 3.05381-8.25438 5.07962-8.25438 5.07962-7.10544 3.05381-7.10544 3.05381-2.75147C3.05381-2.22234 3.1143-1.82171 3.23525-1.54203 3.3713-1.27746 3.69634-1.14896 4.20279-1.14896L5.10985-1.14896 5.10985 0Z" fill="#E8E8E8" fill-rule="nonzero" fill-opacity="1" transform="matrix(1.00206 0 0 1 587.98 613.489)"/><path d="M1.36061 0 1.36061-8.25438 2.69098-8.25438 2.75147-6.8333C2.97068-7.27172 3.28059-7.63455 3.68877-7.92179 4.11208-8.20147 4.65632-8.3451 5.32151-8.3451L5.50293-8.3451 5.50293-7.04494 5.29128-7.04494C4.88309-7.04494 4.52026-6.99204 4.20279-6.89377 3.90042-6.78794 3.6283-6.63677 3.38642-6.44023 3.15964-6.25883 2.96311-6.04717 2.7817-5.80528L2.7817 0Z" fill="#E8E8E8" fill-rule="nonzero" fill-opacity="1" transform="matrix(1.00206 0 0 1 597.126 613.489)"/><path d="M4.80751 0.151179C3.90042 0.151179 3.15209-0.0302359 2.57004-0.393066 2.00313-0.771015 1.57982-1.28502 1.30014-1.93509 1.03558-2.5776 0.907076-3.30326 0.907076-4.11208 0.907076-4.95868 1.03558-5.69945 1.30014-6.34953 1.55715-6.99204 1.96532-7.49849 2.50959-7.86132 3.06894-8.22415 3.77947-8.40557 4.62608-8.40557 5.75238-8.40557 6.62921-8.05785 7.2566-7.37755 7.89911-6.68968 8.22415-5.71457 8.22415-4.44468 8.22415-4.36153 8.22415-4.26325 8.22415-4.1423 8.22415-4.03649 8.20904-3.96091 8.19393-3.90042L2.32815-3.90042C2.32815-3.3713 2.40376-2.87996 2.57004-2.41887 2.72879-1.97289 2.99336-1.61006 3.35619-1.33038 3.71902-1.06581 4.20279-0.937311 4.80751-0.937311 5.42734-0.937311 5.91111-1.08849 6.25883-1.39085 6.62166-1.69321 6.81062-2.11651 6.8333-2.66076L8.22415-2.66076C8.22415-2.07115 8.08053-1.57226 7.80085-1.14896 7.5136-0.740777 7.11298-0.423302 6.59142-0.181415 6.08496 0.0377947 5.48781 0.151179 4.80751 0.151179ZM2.32815-4.92845 6.8333-4.92845C6.81062-5.71457 6.60653-6.30417 6.22859-6.71236 5.84308-7.11298 5.3064-7.31708 4.62608-7.31708 3.93823-7.31708 3.39398-7.11298 2.99336-6.71236 2.60785-6.30417 2.38864-5.71457 2.32815-4.92845Z" fill="#E8E8E8" fill-rule="nonzero" fill-opacity="1" transform="matrix(1.00206 0 0 1 602.707 613.489)"/><path d="M2.72123 0 0.0907076-8.25438 1.57226-8.25438 3.53759-1.6025 5.50293-8.25438 7.07519-8.25438 9.07076-1.6025 11.0059-8.25438 12.3967-8.25438 9.76619 0 8.28462 0 6.25883-6.71236 4.23302 0Z" fill="#E8E8E8" fill-rule="nonzero" fill-opacity="1" transform="matrix(1.00206 0 0 1 611.852 613.489)"/><path d="M3.47713 0.151179C3.00847 0.151179 2.5776 0.0529128 2.17698-0.120943 1.79147-0.302359 1.48156-0.559362 1.23967-0.907076 1.0129-1.26991 0.907076-1.70832 0.907076-2.23745 0.907076-2.96311 1.13385-3.51493 1.6025-3.90042 2.0636-4.30106 2.72123-4.56562 3.56783-4.68657 4.41443-4.82262 5.3971-4.90577 6.53094-4.92845L6.53094-5.50293C6.53094-6.20591 6.34953-6.68968 5.9867-6.95425 5.63898-7.21125 5.20813-7.34732 4.68657-7.34732 4.09696-7.34732 3.61319-7.19613 3.23525-6.89377 2.84974-6.60653 2.66076-6.16811 2.66076-5.5634L1.26991-5.5634C1.26991-6.22859 1.40597-6.77283 1.69321-7.19613 1.99557-7.61943 2.39619-7.92179 2.90264-8.10321 3.42421-8.29974 4.02136-8.40557 4.68657-8.40557 5.10985-8.40557 5.51049-8.36021 5.896-8.28462 6.27394-8.20147 6.62166-8.0503 6.924-7.8311 7.24149-7.627 7.49849-7.33219 7.67991-6.95425 7.86132-6.59142 7.95204-6.10764 7.95204-5.50293L7.95204 0 6.62166 0 6.56117-1.23967C6.17568-0.816368 5.7297-0.468657 5.23079-0.211651 4.74702 0.022677 4.15743 0.151179 3.47713 0.151179ZM3.87019-0.937311C4.42955-0.937311 4.936-1.06581 5.38198-1.33038 5.84308-1.58738 6.22859-1.91998 6.53094-2.32815L6.53094-4.02136C5.01915-3.9987 3.93823-3.85508 3.2957-3.59808 2.64564-3.33351 2.32815-2.90264 2.32815-2.29792 2.32815-1.87462 2.45666-1.54203 2.72123-1.30014 2.97823-1.05825 3.36374-0.937311 3.87019-0.937311Z" fill="#E8E8E8" fill-rule="nonzero" fill-opacity="1" transform="matrix(1.00206 0 0 1 624.336 613.489)"/><path d="M1.36061 0 1.36061-8.25438 2.69098-8.25438 2.75147-6.8333C2.97068-7.27172 3.28059-7.63455 3.68877-7.92179 4.11208-8.20147 4.65632-8.3451 5.32151-8.3451L5.50293-8.3451 5.50293-7.04494 5.29128-7.04494C4.88309-7.04494 4.52026-6.99204 4.20279-6.89377 3.90042-6.78794 3.6283-6.63677 3.38642-6.44023 3.15964-6.25883 2.96311-6.04717 2.7817-5.80528L2.7817 0Z" fill="#E8E8E8" fill-rule="nonzero" fill-opacity="1" transform="matrix(1.00206 0 0 1 633.568 613.489)"/><path d="M4.17255 0.151179C3.50736 0.151179 2.91775-0.00755896 2.41887-0.332594 1.93509-0.650072 1.55715-1.13385 1.30014-1.78392 1.03558-2.42643 0.907076-3.21257 0.907076-4.1423 0.907076-5.08719 1.04314-5.87332 1.33038-6.50072 1.61006-7.12055 2.01068-7.59676 2.53981-7.92179 3.06138-8.23927 3.67366-8.40557 4.38419-8.40557 4.96625-8.40557 5.47268-8.26951 5.896-8.01249 6.33442-7.74794 6.68968-7.39266 6.95425-6.95425L6.95425-11.3989 8.37532-11.3989 8.37532 0 7.04494 0 6.95425-1.20943C6.667-0.801249 6.29662-0.468657 5.83551-0.211651 5.36687 0.022677 4.81506 0.151179 4.17255 0.151179ZM4.47491-0.997783C5.07962-0.997783 5.57851-1.13385 5.9867-1.42109 6.38732-1.72344 6.71236-2.07115 6.95425-2.47934L6.95425-5.65411C6.72747-6.11521 6.42511-6.50072 6.04717-6.80306 5.66166-7.10544 5.18545-7.2566 4.62608-7.2566 3.87776-7.2566 3.31083-6.98449 2.93287-6.44023 2.54738-5.896 2.3584-5.12498 2.3584-4.1423 2.3584-3.12942 2.53981-2.3584 2.90264-1.81415 3.26547-1.26991 3.78704-0.997783 4.47491-0.997783Z" fill="#E8E8E8" fill-rule="nonzero" fill-opacity="1" transform="matrix(1.00206 0 0 1 639.131 613.489)"/><path d="M7.01472-7.01472C6.44023-6.924 6.13789-6.44023 6.13789-6.0774 6.13789-5.74481 6.37977-5.44245 6.8333-5.44245 7.28683-5.44245 7.77061-5.83551 7.77061-6.50072 7.77061-7.16589 7.13566-7.67991 6.28906-7.67991 4.98891-7.67991 4.26325-6.71236 4.02136-6.37977 3.80972-7.31708 3.02359-7.67991 2.38864-7.67991 1.75368-7.67991 1.36061-7.28683 1.05825-6.68211 0.72566-6.04717 0.514009-5.07962 0.514009-4.98891 0.514009-4.83774 0.634953-4.77726 0.755896-4.77726 0.937311-4.77726 0.967547-4.86796 1.05825-5.23079 1.39085-6.59142 1.75368-7.22638 2.32815-7.22638 2.87242-7.22638 2.87242-6.68211 2.87242-6.41 2.87242-6.04717 2.72123-5.53317 2.63053-5.07962 2.50959-4.62608 2.32815-3.87019 2.2677-3.65853L1.57226-0.816368C1.45132-0.393066 1.45132-0.36283 1.45132-0.302359 1.45132-0.0907076 1.6025 0.181415 1.96532 0.181415 2.53981 0.181415 2.66076-0.272123 2.7817-0.786132 2.99336-1.54203 2.99336-1.57226 3.14453-2.2677 3.80972-4.86796 3.90042-5.29128 3.93066-5.38198 4.0516-5.59362 4.83774-7.22638 6.28906-7.22638 6.68211-7.22638 6.924-7.10544 7.01472-7.01472Z" fill="#E8E8E8" fill-rule="nonzero" fill-opacity="1" transform="matrix(1.00206 0 0 1 657.259 613.489)"/><path d="M0.846604-3.59808 0.846604-4.83774 5.07962-4.83774 5.07962-3.59808Z" fill="#E8E8E8" fill-rule="nonzero" fill-opacity="1" transform="matrix(1.00206 0 0 1 541.217 640.414)"/><path d="M1.48156 0 1.48156-11.3989 3.05381-11.3989 9.31264-2.32815 9.31264-11.3989 10.764-11.3989 10.764 0 9.1917 0 2.93287-9.10098 2.93287 0Z" fill="#E8E8E8" fill-rule="nonzero" fill-opacity="1" transform="matrix(1.00206 0 0 1 550.658 640.414)"/><path d="M4.80751 0.151179C3.90042 0.151179 3.15209-0.0302359 2.57004-0.393066 2.00313-0.771015 1.57982-1.28502 1.30014-1.93509 1.03558-2.5776 0.907076-3.30326 0.907076-4.11208 0.907076-4.95868 1.03558-5.69945 1.30014-6.34953 1.55715-6.99204 1.96532-7.49849 2.50959-7.86132 3.06894-8.22415 3.77947-8.40557 4.62608-8.40557 5.75238-8.40557 6.62921-8.05785 7.2566-7.37755 7.89911-6.68968 8.22415-5.71457 8.22415-4.44468 8.22415-4.36153 8.22415-4.26325 8.22415-4.1423 8.22415-4.03649 8.20904-3.96091 8.19393-3.90042L2.32815-3.90042C2.32815-3.3713 2.40376-2.87996 2.57004-2.41887 2.72879-1.97289 2.99336-1.61006 3.35619-1.33038 3.71902-1.06581 4.20279-0.937311 4.80751-0.937311 5.42734-0.937311 5.91111-1.08849 6.25883-1.39085 6.62166-1.69321 6.81062-2.11651 6.8333-2.66076L8.22415-2.66076C8.22415-2.07115 8.08053-1.57226 7.80085-1.14896 7.5136-0.740777 7.11298-0.423302 6.59142-0.181415 6.08496 0.0377947 5.48781 0.151179 4.80751 0.151179ZM2.32815-4.92845 6.8333-4.92845C6.81062-5.71457 6.60653-6.30417 6.22859-6.71236 5.84308-7.11298 5.3064-7.31708 4.62608-7.31708 3.93823-7.31708 3.39398-7.11298 2.99336-6.71236 2.60785-6.30417 2.38864-5.71457 2.32815-4.92845Z" fill="#E8E8E8" fill-rule="nonzero" fill-opacity="1" transform="matrix(1.00206 0 0 1 562.933 640.414)"/><path d="M2.72123 0 0.0907076-8.25438 1.57226-8.25438 3.53759-1.6025 5.50293-8.25438 7.07519-8.25438 9.07076-1.6025 11.0059-8.25438 12.3967-8.25438 9.76619 0 8.28462 0 6.25883-6.71236 4.23302 0Z" fill="#E8E8E8" fill-rule="nonzero" fill-opacity="1" transform="matrix(1.00206 0 0 1 572.095 640.414)"/><path d="M4.29349 0.151179C3.82483 0.151179 3.38642 0.0982664 2.96311 0 2.55492-0.0982664 2.19209-0.257004 1.87462-0.483774 1.54959-0.702983 1.30014-0.997783 1.11873-1.36061 0.95243-1.72344 0.87684-2.1543 0.87684-2.66076L2.23745-2.66076C2.23745-2.01068 2.42643-1.55715 2.81192-1.30014 3.21257-1.03558 3.71902-0.907076 4.32374-0.907076 4.86796-0.907076 5.3064-1.00534 5.65411-1.20943 5.99427-1.40597 6.16811-1.75368 6.16811-2.23745 6.16811-2.63808 6.00181-2.94043 5.68434-3.14453 5.38198-3.34106 4.83774-3.53759 4.0516-3.71902 3.40153-3.85508 2.85728-4.02892 2.41887-4.23302 1.97289-4.42955 1.64029-4.68657 1.42109-4.98891 1.19432-5.3064 1.08849-5.69945 1.08849-6.16811 1.08849-6.53094 1.16408-6.84842 1.33038-7.13566 1.48912-7.41534 1.70077-7.64966 1.96532-7.8311 2.24502-8.02762 2.5776-8.17125 2.96311-8.25438 3.34106-8.35266 3.75681-8.40557 4.20279-8.40557 4.62608-8.40557 5.02672-8.35266 5.41223-8.25438 5.79017-8.14857 6.12276-7.98983 6.41-7.77061 6.71236-7.54385 6.93913-7.26417 7.10544-6.924 7.28683-6.59898 7.37755-6.19834 7.37755-5.71457L5.9867-5.71457C5.9867-6.29662 5.81285-6.71236 5.47268-6.95425 5.12498-7.19613 4.70168-7.31708 4.20279-7.31708 3.69634-7.31708 3.28059-7.22638 2.96311-7.04494 2.63808-6.86355 2.47934-6.5763 2.47934-6.19834 2.47934-5.99427 2.54738-5.81285 2.69098-5.65411 2.82706-5.48781 3.06138-5.35174 3.38642-5.23079 3.72657-5.10985 4.18011-4.98891 4.74702-4.86796 5.36687-4.70168 5.88087-4.52026 6.28906-4.32374 6.71236-4.11964 7.02228-3.85508 7.22638-3.53759 7.44559-3.21257 7.55896-2.81192 7.55896-2.32815 7.55896-1.88218 7.47581-1.49668 7.31708-1.1792 7.15077-0.87684 6.924-0.619834 6.62166-0.423302 6.31928-0.219209 5.96402-0.0755896 5.5634 0 5.17789 0.0982664 4.75459 0.151179 4.29349 0.151179Z" fill="#E8E8E8" fill-rule="nonzero" fill-opacity="1" transform="matrix(1.00206 0 0 1 588.143 640.414)"/><path d="M4.11208 0C3.44689 0 2.93287-0.0982664 2.57004-0.302359 2.22234-0.521568 1.98045-0.831487 1.84439-1.23967 1.72344-1.64029 1.66297-2.11651 1.66297-2.66076L1.66297-7.10544 0.272123-7.10544 0.272123-8.25438 1.66297-8.25438 1.66297-10.129 3.05381-10.129 3.05381-8.25438 5.07962-8.25438 5.07962-7.10544 3.05381-7.10544 3.05381-2.75147C3.05381-2.22234 3.1143-1.82171 3.23525-1.54203 3.3713-1.27746 3.69634-1.14896 4.20279-1.14896L5.10985-1.14896 5.10985 0Z" fill="#E8E8E8" fill-rule="nonzero" fill-opacity="1" transform="matrix(1.00206 0 0 1 596.506 640.414)"/><path d="M3.47713 0.151179C3.00847 0.151179 2.5776 0.0529128 2.17698-0.120943 1.79147-0.302359 1.48156-0.559362 1.23967-0.907076 1.0129-1.26991 0.907076-1.70832 0.907076-2.23745 0.907076-2.96311 1.13385-3.51493 1.6025-3.90042 2.0636-4.30106 2.72123-4.56562 3.56783-4.68657 4.41443-4.82262 5.3971-4.90577 6.53094-4.92845L6.53094-5.50293C6.53094-6.20591 6.34953-6.68968 5.9867-6.95425 5.63898-7.21125 5.20813-7.34732 4.68657-7.34732 4.09696-7.34732 3.61319-7.19613 3.23525-6.89377 2.84974-6.60653 2.66076-6.16811 2.66076-5.5634L1.26991-5.5634C1.26991-6.22859 1.40597-6.77283 1.69321-7.19613 1.99557-7.61943 2.39619-7.92179 2.90264-8.10321 3.42421-8.29974 4.02136-8.40557 4.68657-8.40557 5.10985-8.40557 5.51049-8.36021 5.896-8.28462 6.27394-8.20147 6.62166-8.0503 6.924-7.8311 7.24149-7.627 7.49849-7.33219 7.67991-6.95425 7.86132-6.59142 7.95204-6.10764 7.95204-5.50293L7.95204 0 6.62166 0 6.56117-1.23967C6.17568-0.816368 5.7297-0.468657 5.23079-0.211651 4.74702 0.022677 4.15743 0.151179 3.47713 0.151179ZM3.87019-0.937311C4.42955-0.937311 4.936-1.06581 5.38198-1.33038 5.84308-1.58738 6.22859-1.91998 6.53094-2.32815L6.53094-4.02136C5.01915-3.9987 3.93823-3.85508 3.2957-3.59808 2.64564-3.33351 2.32815-2.90264 2.32815-2.29792 2.32815-1.87462 2.45666-1.54203 2.72123-1.30014 2.97823-1.05825 3.36374-0.937311 3.87019-0.937311Z" fill="#E8E8E8" fill-rule="nonzero" fill-opacity="1" transform="matrix(1.00206 0 0 1 602.052 640.414)"/><path d="M4.11208 0C3.44689 0 2.93287-0.0982664 2.57004-0.302359 2.22234-0.521568 1.98045-0.831487 1.84439-1.23967 1.72344-1.64029 1.66297-2.11651 1.66297-2.66076L1.66297-7.10544 0.272123-7.10544 0.272123-8.25438 1.66297-8.25438 1.66297-10.129 3.05381-10.129 3.05381-8.25438 5.07962-8.25438 5.07962-7.10544 3.05381-7.10544 3.05381-2.75147C3.05381-2.22234 3.1143-1.82171 3.23525-1.54203 3.3713-1.27746 3.69634-1.14896 4.20279-1.14896L5.10985-1.14896 5.10985 0Z" fill="#E8E8E8" fill-rule="nonzero" fill-opacity="1" transform="matrix(1.00206 0 0 1 611.128 640.414)"/><path d="M4.80751 0.151179C3.90042 0.151179 3.15209-0.0302359 2.57004-0.393066 2.00313-0.771015 1.57982-1.28502 1.30014-1.93509 1.03558-2.5776 0.907076-3.30326 0.907076-4.11208 0.907076-4.95868 1.03558-5.69945 1.30014-6.34953 1.55715-6.99204 1.96532-7.49849 2.50959-7.86132 3.06894-8.22415 3.77947-8.40557 4.62608-8.40557 5.75238-8.40557 6.62921-8.05785 7.2566-7.37755 7.89911-6.68968 8.22415-5.71457 8.22415-4.44468 8.22415-4.36153 8.22415-4.26325 8.22415-4.1423 8.22415-4.03649 8.20904-3.96091 8.19393-3.90042L2.32815-3.90042C2.32815-3.3713 2.40376-2.87996 2.57004-2.41887 2.72879-1.97289 2.99336-1.61006 3.35619-1.33038 3.71902-1.06581 4.20279-0.937311 4.80751-0.937311 5.42734-0.937311 5.91111-1.08849 6.25883-1.39085 6.62166-1.69321 6.81062-2.11651 6.8333-2.66076L8.22415-2.66076C8.22415-2.07115 8.08053-1.57226 7.80085-1.14896 7.5136-0.740777 7.11298-0.423302 6.59142-0.181415 6.08496 0.0377947 5.48781 0.151179 4.80751 0.151179ZM2.32815-4.92845 6.8333-4.92845C6.81062-5.71457 6.60653-6.30417 6.22859-6.71236 5.84308-7.11298 5.3064-7.31708 4.62608-7.31708 3.93823-7.31708 3.39398-7.11298 2.99336-6.71236 2.60785-6.30417 2.38864-5.71457 2.32815-4.92845Z" fill="#E8E8E8" fill-rule="nonzero" fill-opacity="1" transform="matrix(1.00206 0 0 1 616.657 640.414)"/><path d="M6.89377-6.50072C6.13789-6.41 6.0774-5.83551 6.0774-5.71457 6.0774-5.41223 6.28906-5.20057 6.62166-5.20057 7.10544-5.20057 7.43802-5.59362 7.43802-6.16811 7.43802-7.01472 6.59142-7.67991 5.32151-7.67991 2.99336-7.67991 2.32815-5.92623 2.32815-5.1401 2.32815-4.47491 2.66076-4.1423 2.87242-3.93066 3.23525-3.59808 3.68877-3.47713 4.32374-3.35619 5.10985-3.205 5.26104-3.17475 5.59362-2.96311 5.86576-2.75147 6.01694-2.47934 6.01694-2.08626 6.01694-1.66297 5.59362-0.241887 3.50736-0.241887 3.1143-0.241887 1.90486-0.302359 1.51179-1.08849 2.38864-1.08849 2.53981-1.78392 2.53981-2.02581 2.53981-2.53981 2.08626-2.66076 1.90486-2.66076 1.57226-2.66076 0.907076-2.41887 0.907076-1.51179 0.907076-0.423302 2.02581 0.181415 3.47713 0.181415 6.41 0.181415 7.04494-1.93509 7.04494-2.69098 7.04494-3.35619 6.68211-3.77947 6.47047-3.96091 6.01694-4.44468 5.47268-4.53538 4.86796-4.65632 4.65632-4.71679 4.26325-4.77726 4.20279-4.80751 3.65853-4.92845 3.32594-5.26104 3.32594-5.71457 3.32594-5.896 3.44689-6.47047 3.93066-6.8333 4.41443-7.22638 5.07962-7.22638 5.32151-7.22638 5.92623-7.22638 6.62166-7.04494 6.89377-6.50072Z" fill="#E8E8E8" fill-rule="nonzero" fill-opacity="1" transform="matrix(1.00206 0 0 1 634.184 640.414)"/><path d="M3.6283-5.44245C3.71902-5.62387 3.74925-5.74481 3.74925-5.80528 3.74925-6.16811 3.41664-6.47047 3.02359-6.47047 2.57004-6.47047 2.41887-6.0774 2.38864-5.896L0.755896-0.937311C0.755896-0.87684 0.695425-0.786132 0.695425-0.755896 0.695425-0.544245 1.1792-0.453538 1.1792-0.453538 1.30014-0.453538 1.33038-0.544245 1.39085-0.634953Z" fill="#E8E8E8" fill-rule="nonzero" fill-opacity="1" transform="matrix(1.00206 0 0 1 642.509 633.043)"/><path d="M9.73594-3.96091C10.0383-3.96091 10.3709-3.96091 10.3709-4.35396 10.3709-4.71679 10.0383-4.71679 9.73594-4.71679L2.2677-4.71679C2.41887-6.86355 4.29349-8.82887 6.98449-8.82887L9.73594-8.82887C10.0383-8.82887 10.3709-8.82887 10.3709-9.1917 10.3709-9.58476 10.0383-9.58476 9.73594-9.58476L6.95425-9.58476C3.90042-9.58476 1.48156-7.19613 1.48156-4.35396 1.48156-1.45132 3.93066 0.87684 6.95425 0.87684L9.73594 0.87684C10.0383 0.87684 10.3709 0.87684 10.3709 0.514009 10.3709 0.151179 10.0383 0.151179 9.73594 0.151179L6.98449 0.151179C4.29349 0.151179 2.41887-1.81415 2.2677-3.96091Z" fill="#E8E8E8" fill-rule="nonzero" fill-opacity="1" transform="matrix(1.00206 0 0 1 652.677 640.414)"/><path d="M2.05604-3.80972C2.81192-4.17255 2.87242-4.47491 2.87242-4.50513 2.87242-4.62608 2.7817-4.62608 2.66076-4.62608 2.02581-4.62608 0.332594-3.83996 0.332594-2.17698 0.332594-0.907076 1.81415 0.393066 3.96091 0.393066 6.89377 0.393066 10.2197-1.6025 10.2197-3.96091 10.2197-5.62387 8.40557-6.41 7.04494-6.98449 6.47047-7.22638 4.86796-7.92179 4.86796-9.28242 4.86796-9.85689 5.17034-10.4918 5.59362-10.8244 6.01694-11.1268 6.77283-11.278 7.34732-11.278 7.55896-11.278 8.28462-11.2175 8.98004-10.9454 9.37311-10.764 9.88713-10.5825 9.88713-9.79642 9.88713-9.55453 9.82664-9.34287 9.79642-9.34287 9.79642-9.28242 9.76619-9.16147 9.76619-9.10098 9.76619-9.07076 9.79642-8.98004 9.94759-8.98004 10.1592-8.98004 10.7337-9.25217 11.0059-9.49406 11.1873-9.67547 11.3989-9.88713 11.3989-10.5523 11.3989-11.4292 10.8244-11.671 10.4011-11.8827 9.55453-12.2455 8.7684-12.2455 8.52651-12.2455 6.19834-12.2455 3.35619-10.4918 3.35619-8.49627 3.35619-7.01472 5.01915-6.31928 5.71457-6.01694 7.01472-5.47268 8.70793-4.71679 8.70793-3.205 8.70793-2.57004 8.37532-1.69321 7.64966-1.20943 6.95425-0.755896 5.80528-0.604717 5.1401-0.604717 3.32594-0.604717 1.84439-1.75368 1.84439-2.93287 1.84439-3.23525 1.90486-3.53759 2.05604-3.80972Z" fill="#E8E8E8" fill-rule="nonzero" fill-opacity="1" transform="matrix(1.00206 0 0 1 669.541 640.414)"/></g></g></g></g></g></svg>