<svg width="900" height="1400" viewBox="0 0 900 1400" fill="none" xmlns="http://www.w3.org/2000/svg">
<g clip-path="url(#clip0_204_1545)">
<path d="M700 450C700 588.071 588.071 700 450 700C311.929 700 200 588.071 200 450H700ZM450 0C509.095 0 567.611 11.6393 622.208 34.2539C676.804 56.8685 726.412 90.0155 768.198 131.802C809.985 173.588 843.131 223.196 865.746 277.792C888.361 332.389 900 390.905 900 450H700C700 311.929 588.071 200 450 200C311.929 200 200 311.929 200 450H0C-1.80626e-10 390.905 11.6394 332.389 34.2539 277.793C56.8685 223.196 90.0154 173.588 131.802 131.802C173.588 90.0155 223.196 56.8685 277.792 34.2539C332.389 11.6393 390.905 2.58312e-06 450 0Z" fill="#780000"/>
<path d="M200 950C200 811.929 311.929 700 450 700C588.071 700 700 811.929 700 950H200ZM450 1400C390.905 1400 332.389 1388.36 277.792 1365.75C223.196 1343.13 173.588 1309.98 131.802 1268.2C90.0155 1226.41 56.8685 1176.8 34.2539 1122.21C11.6393 1067.61 0 1009.09 0 950H200C200 1088.07 311.929 1200 450 1200C588.071 1200 700 1088.07 700 950H900C900 1009.09 888.361 1067.61 865.746 1122.21C843.131 1176.8 809.985 1226.41 768.198 1268.2C726.412 1309.98 676.804 1343.13 622.208 1365.75C567.611 1388.36 509.095 1400 450 1400Z" fill="#780000"/>
</g>
<defs>
<clipPath id="clip0_204_1545">
<rect width="900" height="1400" fill="white"/>
</clipPath>
</defs>
</svg>
